<svg width="24" height="24" viewBox="0 0 24 24" fill="none" xmlns="http://www.w3.org/2000/svg">
<path d="M3.77801 11.942C2.83001 10.29 2.37201 8.94001 2.09601 7.57201C1.68801 5.54801 2.62201 3.57101 4.16901 2.30901C4.82301 1.77601 5.57301 1.95901 5.96001 2.65201L6.83301 4.21901C7.52501 5.46101 7.87101 6.08101 7.80301 6.73901C7.73401 7.39801 7.26701 7.93401 6.33401 9.00601L3.77801 11.942ZM3.77801 11.942C5.69701 15.288 8.70801 18.302 12.058 20.222M12.058 20.222C13.711 21.17 15.06 21.628 16.428 21.904C18.452 22.312 20.429 21.378 21.69 19.831C22.224 19.177 22.041 18.427 21.348 18.04L19.781 17.167C18.539 16.475 17.919 16.129 17.261 16.197C16.602 16.266 16.066 16.733 14.994 17.666L12.058 20.222Z" stroke="#575353" strokeWidth="1.5" strokeLinecap="round" strokeLinejoin="round"/>
</svg>
