<svg width="23" height="23" viewBox="0 0 23 23" fill="none" xmlns="http://www.w3.org/2000/svg">
<path d="M20.0292 1.91667H2.97091C2.69133 1.91667 2.4232 2.02774 2.22551 2.22543C2.02781 2.42312 1.91675 2.69126 1.91675 2.97084V20.0292C1.91675 20.3088 2.02781 20.5769 2.22551 20.7746C2.4232 20.9723 2.69133 21.0833 2.97091 21.0833H12.1517V13.6563H9.66008V10.7813H12.1517V8.625C12.1001 8.11877 12.1599 7.60738 12.3268 7.12669C12.4938 6.646 12.7639 6.20765 13.1182 5.8424C13.4725 5.47715 13.9024 5.19383 14.3778 5.01232C14.8532 4.83081 15.3625 4.7555 15.8701 4.79167C16.616 4.78652 17.3616 4.82492 18.103 4.90667V7.49417H16.5792C15.3717 7.49417 15.1417 8.06917 15.1417 8.90292V10.7525H18.0167L17.643 13.6275H15.1417V21.0833H20.0292C20.1677 21.0833 20.3048 21.0561 20.4327 21.0031C20.5606 20.9501 20.6768 20.8725 20.7747 20.7746C20.8725 20.6767 20.9502 20.5605 21.0032 20.4326C21.0561 20.3047 21.0834 20.1676 21.0834 20.0292V2.97084C21.0834 2.8324 21.0561 2.69532 21.0032 2.56743C20.9502 2.43953 20.8725 2.32332 20.7747 2.22543C20.6768 2.12754 20.5606 2.04989 20.4327 1.99692C20.3048 1.94394 20.1677 1.91667 20.0292 1.91667Z" fill="#655E5E"/>
</svg>
