<svg width="25" height="21" viewBox="0 0 25 21" fill="none" xmlns="http://www.w3.org/2000/svg">
<path d="M21.6335 11.9751L14.3265 19.2833C13.8421 19.7676 13.1851 20.0397 12.5001 20.0397C11.8151 20.0397 11.1581 19.7676 10.6737 19.2833L3.36672 11.9764C2.7627 11.3776 2.28289 10.6655 1.95484 9.88077C1.62679 9.09608 1.45696 8.25432 1.45509 7.40383C1.45323 6.55333 1.61938 5.71084 1.94399 4.92472C2.2686 4.13861 2.74529 3.42435 3.34668 2.82295C3.94808 2.22156 4.66233 1.74487 5.44845 1.42026C6.23456 1.09565 7.07706 0.929504 7.92755 0.931366C8.77805 0.933229 9.61981 1.10306 10.4045 1.43111C11.1892 1.75916 11.9013 2.23897 12.5001 2.843C13.7163 1.65708 15.3507 0.998064 17.0494 1.00871C18.748 1.01935 20.3741 1.6988 21.5753 2.89986C22.7766 4.10092 23.4562 5.72689 23.4671 7.42554C23.478 9.12418 22.8192 10.7587 21.6335 11.9751Z" stroke="#655E5E" strokeWidth="1.5" strokeLinecap="round" strokeLinejoin="round"/>
</svg>
