<svg width="23" height="23" viewBox="0 0 23 23" fill="none" xmlns="http://www.w3.org/2000/svg">
<path d="M12.4851 1.91667C13.5632 1.91955 14.1104 1.9253 14.5829 1.93871L14.7688 1.94542C14.9834 1.95309 15.1952 1.96267 15.4511 1.97417C16.4708 2.02209 17.1665 2.18309 17.777 2.4198C18.4095 2.66321 18.9423 2.99288 19.4751 3.52476C19.9626 4.00367 20.3397 4.58321 20.5801 5.22292C20.8168 5.83338 20.9778 6.52913 21.0257 7.54976C21.0372 7.80467 21.0468 8.01646 21.0545 8.23209L21.0602 8.41801C21.0746 8.88951 21.0804 9.43671 21.0823 10.5148L21.0832 11.2298V12.4852C21.0856 13.1842 21.0782 13.8832 21.0612 14.582L21.0554 14.7679C21.0478 14.9835 21.0382 15.1953 21.0267 15.4503C20.9788 16.4709 20.8159 17.1657 20.5801 17.7771C20.3397 18.4168 19.9626 18.9963 19.4751 19.4753C18.9962 19.9628 18.4167 20.3398 17.777 20.5802C17.1665 20.8169 16.4708 20.9779 15.4511 21.0258L14.7688 21.0546L14.5829 21.0603C14.1104 21.0738 13.5632 21.0805 12.4851 21.0824L11.7701 21.0833H10.5157C9.81635 21.0858 9.11702 21.0785 8.41789 21.0613L8.23198 21.0555C8.00448 21.0469 7.77703 21.037 7.54964 21.0258C6.52998 20.9779 5.83423 20.8169 5.22281 20.5802C4.58344 20.3397 4.00424 19.9626 3.5256 19.4753C3.03776 18.9964 2.66033 18.4169 2.41969 17.7771C2.18298 17.1666 2.02198 16.4709 1.97406 15.4503L1.94531 14.7679L1.94052 14.582C1.92285 13.8832 1.91487 13.1842 1.91656 12.4852V10.5148C1.91391 9.81583 1.92094 9.11682 1.93764 8.41801L1.94435 8.23209C1.95202 8.01646 1.9616 7.80467 1.9731 7.54976C2.02102 6.52913 2.18202 5.83434 2.41873 5.22292C2.65993 4.58295 3.03802 4.00338 3.52656 3.52476C4.00492 3.03749 4.58378 2.66041 5.22281 2.4198C5.83423 2.18309 6.52902 2.02209 7.54964 1.97417C7.80456 1.96267 8.01731 1.95309 8.23198 1.94542L8.41789 1.93967C9.1167 1.92264 9.81571 1.9153 10.5147 1.91763L12.4851 1.91667ZM11.4999 6.70834C10.2291 6.70834 9.01029 7.21317 8.11167 8.11179C7.21306 9.0104 6.70823 10.2292 6.70823 11.5C6.70823 12.7708 7.21306 13.9896 8.11167 14.8882C9.01029 15.7868 10.2291 16.2917 11.4999 16.2917C12.7707 16.2917 13.9895 15.7868 14.8881 14.8882C15.7867 13.9896 16.2916 12.7708 16.2916 11.5C16.2916 10.2292 15.7867 9.0104 14.8881 8.11179C13.9895 7.21317 12.7707 6.70834 11.4999 6.70834ZM11.4999 8.62501C11.8774 8.62494 12.2513 8.69924 12.6001 8.84367C12.949 8.98809 13.266 9.19981 13.533 9.46673C13.8 9.73366 14.0118 10.0506 14.1563 10.3993C14.3009 10.7481 14.3753 11.122 14.3754 11.4995C14.3754 11.8771 14.3011 12.2509 14.1567 12.5998C14.0123 12.9486 13.8006 13.2656 13.5336 13.5326C13.2667 13.7996 12.9498 14.0114 12.601 14.156C12.2522 14.3005 11.8784 14.3749 11.5009 14.375C10.7384 14.375 10.0071 14.0721 9.46792 13.5329C8.92875 12.9938 8.62585 12.2625 8.62585 11.5C8.62585 10.7375 8.92875 10.0062 9.46792 9.46707C10.0071 8.92791 10.7384 8.62501 11.5009 8.62501M16.5321 5.27084C16.2144 5.27084 15.9097 5.39705 15.685 5.6217C15.4604 5.84635 15.3342 6.15105 15.3342 6.46876C15.3342 6.78646 15.4604 7.09116 15.685 7.31581C15.9097 7.54046 16.2144 7.66667 16.5321 7.66667C16.8498 7.66667 17.1545 7.54046 17.3792 7.31581C17.6038 7.09116 17.73 6.78646 17.73 6.46876C17.73 6.15105 17.6038 5.84635 17.3792 5.6217C17.1545 5.39705 16.8498 5.27084 16.5321 5.27084Z" fill="#655E5E"/>
</svg>
