<svg width="25" height="25" viewBox="0 0 25 25" fill="none" xmlns="http://www.w3.org/2000/svg">
<path fill-rule="evenodd" clip-rule="evenodd" d="M12.5 22.0714L13.2512 21.225C14.1036 20.2496 14.8707 19.3214 15.5524 18.4405L16.1155 17.6976C18.4671 14.5302 19.6429 12.0171 19.6429 10.1583C19.6429 6.19167 16.4453 2.9762 12.5 2.9762C8.5548 2.9762 5.35718 6.19167 5.35718 10.1583C5.35718 12.0171 6.53297 14.5306 8.88456 17.6988L9.44765 18.4417C10.4209 19.6885 11.4391 20.8984 12.5 22.0714Z" stroke="#352E2E" strokeLinecap="round" strokeLinejoin="round"/>
<path d="M12.5001 13.0952C14.1438 13.0952 15.4763 11.7628 15.4763 10.1191C15.4763 8.47535 14.1438 7.14287 12.5001 7.14287C10.8564 7.14287 9.52393 8.47535 9.52393 10.1191C9.52393 11.7628 10.8564 13.0952 12.5001 13.0952Z" stroke="#352E2E" strokeLinecap="round" strokeLinejoin="round"/>
</svg>
