<svg width="23" height="23" viewBox="0 0 23 23" fill="none" xmlns="http://www.w3.org/2000/svg">
<path d="M21.5242 5.74999C20.7862 6.08541 19.9908 6.30583 19.1667 6.41124C20.01 5.90333 20.6617 5.09833 20.9683 4.13041C20.1729 4.60958 19.2912 4.945 18.3617 5.13666C17.6046 4.3125 16.5408 3.83333 15.3333 3.83333C13.0812 3.83333 11.2412 5.67333 11.2412 7.94458C11.2412 8.27041 11.2796 8.58666 11.3467 8.88375C7.935 8.71125 4.89708 7.07249 2.875 4.59041C2.52041 5.19416 2.31916 5.90333 2.31916 6.65083C2.31916 8.07874 3.03791 9.34374 4.14958 10.0625C3.46916 10.0625 2.83666 9.87083 2.28083 9.58333V9.61208C2.28083 11.6054 3.69916 13.2729 5.5775 13.6467C4.97455 13.8124 4.34128 13.8354 3.72791 13.7137C3.9882 14.5307 4.49797 15.2456 5.18555 15.7578C5.87314 16.2701 6.70397 16.5539 7.56125 16.5696C6.1081 17.7201 4.30676 18.3419 2.45333 18.3329C2.1275 18.3329 1.80166 18.3137 1.47583 18.2754C3.29666 19.4446 5.4625 20.125 7.78166 20.125C15.3333 20.125 19.4829 13.8575 19.4829 8.42374C19.4829 8.24166 19.4829 8.06916 19.4733 7.88708C20.2783 7.31208 20.9683 6.58374 21.5242 5.74999Z" fill="#655E5E"/>
</svg>
