<svg width="23" height="23" viewBox="0 0 23 23" fill="none" xmlns="http://www.w3.org/2000/svg">
<path d="M11.7339 3.83333C12.2457 3.8362 13.526 3.84866 14.8868 3.90329L15.3698 3.92437C16.7393 3.98858 18.1078 4.09974 18.7872 4.28854C19.6929 4.54345 20.404 5.2852 20.6445 6.22629C21.0278 7.72129 21.0757 10.6365 21.0815 11.3428L21.0825 11.4885V11.6552C21.0757 12.3615 21.0278 15.2777 20.6445 16.7718C20.4011 17.7157 19.689 18.4585 18.7872 18.7095C18.1078 18.8983 16.7393 19.0095 15.3698 19.0737L14.8868 19.0957C13.526 19.1494 12.2457 19.1628 11.7339 19.1647L11.5087 19.1657H11.2643C10.1814 19.159 5.65233 19.1101 4.211 18.7095C3.30633 18.4546 2.59429 17.7129 2.35375 16.7718C1.97041 15.2768 1.9225 12.3615 1.91675 11.6552V11.3428C1.9225 10.6365 1.97041 7.72033 2.35375 6.22629C2.59716 5.28233 3.30921 4.53962 4.21196 4.28949C5.65233 3.88795 10.1824 3.83908 11.2653 3.83333H11.7339ZM9.58246 8.14583V14.8542L15.3325 11.5L9.58246 8.14583Z" fill="#655E5E"/>
</svg>
